<svg xmlns="http://www.w3.org/2000/svg" width="19.313" height="25.454" viewBox="0 0 19.313 25.454"><path d="M18.464,5.886a.7.7,0,0,0,.72-.682V2.932a.7.7,0,0,0-.72-.682H.7a.7.7,0,0,0-.72.682V5.474a.7.7,0,0,0,.72.682H5.819c1.639,0,4.3-.311,4.3,2.394H.59a.7.7,0,0,0-.72.682V11.5a.7.7,0,0,0,.72.682h9.527c-.373,2.05-1.867,2.485-4.375,2.485H.7a.7.7,0,0,0-.72.682v3.012a.666.666,0,0,0,.232.5l9.9,8.656a.743.743,0,0,0,.488.181H15.56a.678.678,0,0,0,.488-1.183L6.994,18.608c4.591-.133,7.759-2.188,8.19-6.421h3.169a.7.7,0,0,0,.72-.682V9.232a.7.7,0,0,0-.72-.682H15.184V5.886Z" transform="translate(0.13 -2.25)" fill="#ff8f00"/></svg>