<svg xmlns="http://www.w3.org/2000/svg" xmlns:xlink="http://www.w3.org/1999/xlink" width="124.177" height="139.46" viewBox="0 0 124.177 139.46"><defs><linearGradient id="a" x1="0.5" x2="0.5" y2="1" gradientUnits="objectBoundingBox"><stop offset="0" stop-color="#ffbd00"/><stop offset="1" stop-color="#ff8f00"/></linearGradient><filter id="b" x="34.909" y="33.413" width="89.268" height="96.073" filterUnits="userSpaceOnUse"><feOffset dy="10" input="SourceAlpha"/><feGaussianBlur stdDeviation="10" result="c"/><feFlood flood-color="#5169fb" flood-opacity="0.4"/><feComposite operator="in" in2="c"/><feComposite in="SourceGraphic"/></filter><linearGradient id="d" x1="0.5" x2="0.5" y2="1" gradientUnits="objectBoundingBox"><stop offset="0" stop-color="#5169fb"/><stop offset="1" stop-color="#1224a6"/></linearGradient><filter id="e" x="14.961" y="44.883" width="84.604" height="94.578" filterUnits="userSpaceOnUse"><feOffset dy="10" input="SourceAlpha"/><feGaussianBlur stdDeviation="10" result="f"/><feFlood flood-color="#5169fb" flood-opacity="0.4"/><feComposite operator="in" in2="f"/><feComposite in="SourceGraphic"/></filter><filter id="h" x="0" y="19.309" width="114.526" height="91.656" filterUnits="userSpaceOnUse"><feOffset dy="10" input="SourceAlpha"/><feGaussianBlur stdDeviation="10" result="i"/><feFlood flood-color="#5169fb" flood-opacity="0.4"/><feComposite operator="in" in2="i"/><feComposite in="SourceGraphic"/></filter><filter id="k" x="15.281" y="0" width="83.964" height="83.964" filterUnits="userSpaceOnUse"><feOffset dy="10" input="SourceAlpha"/><feGaussianBlur stdDeviation="10" result="l"/><feFlood flood-color="#5169fb" flood-opacity="0.4"/><feComposite operator="in" in2="l"/><feComposite in="SourceGraphic"/></filter><filter id="m" x="13.689" y="36.917" width="65.928" height="72.586" filterUnits="userSpaceOnUse"><feOffset dy="10" input="SourceAlpha"/><feGaussianBlur stdDeviation="10" result="n"/><feFlood flood-color="#5169fb" flood-opacity="0.4"/><feComposite operator="in" in2="n"/><feComposite in="SourceGraphic"/></filter><filter id="o" x="34.909" y="36.917" width="65.927" height="72.587" filterUnits="userSpaceOnUse"><feOffset dy="10" input="SourceAlpha"/><feGaussianBlur stdDeviation="10" result="p"/><feFlood flood-color="#5169fb" flood-opacity="0.4"/><feComposite operator="in" in2="p"/><feComposite in="SourceGraphic"/></filter></defs><g transform="translate(-705 -2230)"><g transform="matrix(1, 0, 0, 1, 705, 2230)" filter="url(#b)"><path d="M252.532,242.749l-13.586-16.536c-.044-.053-.09-.1-.138-.153l-9.884-10.064a2.328,2.328,0,0,0-3.989,1.631v31.417a2.328,2.328,0,0,0,2.328,2.328h21.194c2.572,0,4.519-1,5.345-2.748S254.164,244.735,252.532,242.749Zm0,0" transform="translate(-160.03 -161.88)" fill="url(#a)"/></g><g transform="matrix(1, 0, 0, 1, 705, 2230)" filter="url(#e)"><path d="M118.675,289.2H98.726a2.328,2.328,0,0,0-2.328,2.328v24.935a7.311,7.311,0,0,0,12.3,5.346,7.311,7.311,0,0,0,12.3-5.346V291.527A2.328,2.328,0,0,0,118.675,289.2Zm0,0" transform="translate(-51.44 -224.32)" fill="url(#d)"/></g><g transform="matrix(1, 0, 0, 1, 705, 2230)" filter="url(#h)"><path d="M52.383,138.6,43.29,129.5A19.663,19.663,0,0,0,31,124.414H23.522a19.665,19.665,0,0,0-12.288,5.09L2.142,138.6a7.314,7.314,0,0,0,0,10.344l4.987,4.988a7.318,7.318,0,0,0,9.6.649,2.337,2.337,0,0,0,.556.067H37.237a2.337,2.337,0,0,0,.556-.067,7.318,7.318,0,0,0,9.6-.649l4.987-4.987a7.313,7.313,0,0,0,0-10.345Zm0,0" transform="translate(30 -85.11)" fill="url(#d)"/></g><g transform="matrix(1, 0, 0, 1, 705, 2230)" filter="url(#k)"><path d="M110.443,0a11.982,11.982,0,1,0,11.982,11.982A12,12,0,0,0,110.443,0Zm0,0" transform="translate(-53.18 20)" fill="url(#a)"/></g><g transform="matrix(1, 0, 0, 1, 705, 2230)" filter="url(#m)"><path d="M82.969,215.833a1.822,1.822,0,0,0-2.576,0l-2.285,2.285a1.82,1.82,0,0,0,0,2.575l1.143,1.143a2.065,2.065,0,0,1,.609,1.47h0a2.064,2.064,0,0,1-.609,1.47,1.821,1.821,0,1,0,2.575,2.576,5.685,5.685,0,0,0,1.676-4.044v0a5.681,5.681,0,0,0-1.534-3.9l1-1A1.82,1.82,0,0,0,82.969,215.833Zm0,0" transform="translate(-33.88 -158.38)" fill="#fff"/></g><g transform="matrix(1, 0, 0, 1, 705, 2230)" filter="url(#o)"><path d="M228.576,223.307a2.068,2.068,0,0,1,.609-1.47l1.143-1.143a1.821,1.821,0,0,0,0-2.575l-2.285-2.285a1.821,1.821,0,0,0-2.575,2.575l1,1a5.681,5.681,0,0,0-1.534,3.9v0a5.686,5.686,0,0,0,1.676,4.044,1.821,1.821,0,0,0,2.576-2.575,2.066,2.066,0,0,1-.609-1.47h0Zm0,0" transform="translate(-160.03 -158.38)" fill="#fff"/></g></g></svg>