<svg xmlns="http://www.w3.org/2000/svg" width="39.938" height="52.635" viewBox="0 0 39.938 52.635"><path d="M38.319,9.769a1.451,1.451,0,0,0,1.489-1.41V3.66a1.451,1.451,0,0,0-1.489-1.41H1.588A1.451,1.451,0,0,0,.1,3.66V8.917a1.451,1.451,0,0,0,1.489,1.41H12.171c3.389,0,8.889-.643,8.889,4.951H1.359A1.451,1.451,0,0,0-.13,16.688v4.7A1.451,1.451,0,0,0,1.359,22.8h19.7c-.771,4.24-3.861,5.139-9.048,5.139H1.588A1.451,1.451,0,0,0,.1,29.347v6.228a1.377,1.377,0,0,0,.479,1.036l20.481,17.9a1.536,1.536,0,0,0,1.01.374H32.315a1.4,1.4,0,0,0,1.01-2.446L14.6,36.076C24.095,35.8,30.647,31.552,31.537,22.8H38.09a1.451,1.451,0,0,0,1.489-1.41v-4.7a1.451,1.451,0,0,0-1.489-1.41H31.537V9.769Z" transform="translate(0.13 -2.25)" fill="#ffbd00"/></svg>