<svg xmlns="http://www.w3.org/2000/svg" xmlns:xlink="http://www.w3.org/1999/xlink" width="139.476" height="117.223" viewBox="0 0 139.476 117.223"><defs><linearGradient id="a" x1="0.5" x2="0.5" y2="1" gradientUnits="objectBoundingBox"><stop offset="0" stop-color="#ffbd00"/><stop offset="1" stop-color="#ff8f00"/></linearGradient><filter id="b" x="17.485" y="0" width="88.612" height="85.433" filterUnits="userSpaceOnUse"><feOffset dy="10" input="SourceAlpha"/><feGaussianBlur stdDeviation="10" result="c"/><feFlood flood-color="#5169fb" flood-opacity="0.4"/><feComposite operator="in" in2="c"/><feComposite in="SourceGraphic"/></filter><linearGradient id="d" x1="0.5" x2="0.5" y2="1" gradientUnits="objectBoundingBox"><stop offset="0" stop-color="#5169fb"/><stop offset="1" stop-color="#1224a6"/></linearGradient><filter id="e" x="57.223" y="36.559" width="72.716" height="72.716" filterUnits="userSpaceOnUse"><feOffset dy="10" input="SourceAlpha"/><feGaussianBlur stdDeviation="10" result="f"/><feFlood flood-color="#5169fb" flood-opacity="0.4"/><feComposite operator="in" in2="f"/><feComposite in="SourceGraphic"/></filter><filter id="h" x="9.537" y="36.559" width="72.716" height="72.716" filterUnits="userSpaceOnUse"><feOffset dy="10" input="SourceAlpha"/><feGaussianBlur stdDeviation="10" result="i"/><feFlood flood-color="#5169fb" flood-opacity="0.4"/><feComposite operator="in" in2="i"/><feComposite in="SourceGraphic"/></filter><filter id="k" x="33.38" y="36.559" width="72.716" height="72.716" filterUnits="userSpaceOnUse"><feOffset dy="10" input="SourceAlpha"/><feGaussianBlur stdDeviation="10" result="l"/><feFlood flood-color="#5169fb" flood-opacity="0.4"/><feComposite operator="in" in2="l"/><feComposite in="SourceGraphic"/></filter><filter id="n" x="0" y="28.612" width="139.476" height="88.611" filterUnits="userSpaceOnUse"><feOffset dy="10" input="SourceAlpha"/><feGaussianBlur stdDeviation="10" result="o"/><feFlood flood-color="#5169fb" flood-opacity="0.4"/><feComposite operator="in" in2="o"/><feComposite in="SourceGraphic"/></filter></defs><g transform="translate(-192 -1314.664)"><g transform="matrix(1, 0, 0, 1, 192, 1314.66)" filter="url(#b)"><path d="M25.09,52.432H50.522a1.59,1.59,0,0,0,1.59-1.59V28.59A1.59,1.59,0,0,0,50.522,27H25.09a1.59,1.59,0,0,0-1.59,1.59V50.843A1.59,1.59,0,0,0,25.09,52.432Zm9.537-22.253h6.358v6.358l-3.179-1.59-3.179,1.59Z" transform="translate(23.98 -7)" fill="url(#a)"/></g><g transform="matrix(1, 0, 0, 1, 192, 1314.66)" filter="url(#e)"><circle cx="6.358" cy="6.358" r="6.358" transform="translate(87.22 56.56)" fill="url(#d)"/></g><g transform="matrix(1, 0, 0, 1, 192, 1314.66)" filter="url(#h)"><circle cx="6.358" cy="6.358" r="6.358" transform="translate(39.54 56.56)" fill="url(#d)"/></g><g transform="matrix(1, 0, 0, 1, 192, 1314.66)" filter="url(#k)"><circle cx="6.358" cy="6.358" r="6.358" transform="translate(63.38 56.56)" fill="url(#d)"/></g><g transform="matrix(1, 0, 0, 1, 192, 1314.66)" filter="url(#n)"><path d="M77.671,45H26.806a14.306,14.306,0,0,0,0,28.612H77.671a14.306,14.306,0,0,0,0-28.612ZM28.4,68.843a9.537,9.537,0,1,1,9.537-9.537A9.537,9.537,0,0,1,28.4,68.843Zm23.843,0a9.537,9.537,0,1,1,9.537-9.537A9.537,9.537,0,0,1,52.238,68.843Zm23.843,0a9.537,9.537,0,1,1,9.537-9.537A9.537,9.537,0,0,1,76.081,68.843Z" transform="translate(17.5 3.61)" fill="url(#d)"/></g></g></svg>