<svg xmlns="http://www.w3.org/2000/svg" xmlns:xlink="http://www.w3.org/1999/xlink" width="128.767" height="139.25" viewBox="0 0 128.767 139.25"><defs><linearGradient id="a" x1="0.5" x2="0.56" y2="2.977" gradientUnits="objectBoundingBox"><stop offset="0" stop-color="#5169fb"/><stop offset="1" stop-color="#1224a6"/></linearGradient><filter id="b" x="24.741" y="45.368" width="69.642" height="69.643" filterUnits="userSpaceOnUse"><feOffset dy="10" input="SourceAlpha"/><feGaussianBlur stdDeviation="10" result="c"/><feFlood flood-color="#5169fb" flood-opacity="0.4"/><feComposite operator="in" in2="c"/><feComposite in="SourceGraphic"/></filter><linearGradient id="d" x2="0.5" y2="1.386" xlink:href="#a"/><filter id="e" x="29.162" y="50.251" width="66.399" height="65.936" filterUnits="userSpaceOnUse"><feOffset dy="10" input="SourceAlpha"/><feGaussianBlur stdDeviation="10" result="f"/><feFlood flood-color="#5169fb" flood-opacity="0.4"/><feComposite operator="in" in2="f"/><feComposite in="SourceGraphic"/></filter><filter id="h" x="34.383" y="52.436" width="69.642" height="69.643" filterUnits="userSpaceOnUse"><feOffset dy="10" input="SourceAlpha"/><feGaussianBlur stdDeviation="10" result="i"/><feFlood flood-color="#5169fb" flood-opacity="0.4"/><feComposite operator="in" in2="i"/><feComposite in="SourceGraphic"/></filter><filter id="k" x="33.205" y="57.321" width="66.399" height="65.936" filterUnits="userSpaceOnUse"><feOffset dy="10" input="SourceAlpha"/><feGaussianBlur stdDeviation="10" result="l"/><feFlood flood-color="#5169fb" flood-opacity="0.4"/><feComposite operator="in" in2="l"/><feComposite in="SourceGraphic"/></filter><filter id="n" x="24.741" y="61.861" width="69.642" height="69.643" filterUnits="userSpaceOnUse"><feOffset dy="10" input="SourceAlpha"/><feGaussianBlur stdDeviation="10" result="o"/><feFlood flood-color="#5169fb" flood-opacity="0.4"/><feComposite operator="in" in2="o"/><feComposite in="SourceGraphic"/></filter><filter id="q" x="29.162" y="66.746" width="66.399" height="65.936" filterUnits="userSpaceOnUse"><feOffset dy="10" input="SourceAlpha"/><feGaussianBlur stdDeviation="10" result="r"/><feFlood flood-color="#5169fb" flood-opacity="0.4"/><feComposite operator="in" in2="r"/><feComposite in="SourceGraphic"/></filter><filter id="t" x="33.206" y="40.989" width="62.356" height="98.26" filterUnits="userSpaceOnUse"><feOffset dy="10" input="SourceAlpha"/><feGaussianBlur stdDeviation="10" result="u"/><feFlood flood-color="#5169fb" flood-opacity="0.4"/><feComposite operator="in" in2="u"/><feComposite in="SourceGraphic"/></filter><filter id="w" x="49.482" y="59.576" width="69.642" height="69.643" filterUnits="userSpaceOnUse"><feOffset dy="10" input="SourceAlpha"/><feGaussianBlur stdDeviation="10" result="x"/><feFlood flood-color="#5169fb" flood-opacity="0.4"/><feComposite operator="in" in2="x"/><feComposite in="SourceGraphic"/></filter><filter id="z" x="53.889" y="63.983" width="66.413" height="66.414" filterUnits="userSpaceOnUse"><feOffset dy="10" input="SourceAlpha"/><feGaussianBlur stdDeviation="10" result="aa"/><feFlood flood-color="#5169fb" flood-opacity="0.4"/><feComposite operator="in" in2="aa"/><feComposite in="SourceGraphic"/></filter><filter id="ac" x="57.946" y="62.254" width="62.356" height="76.995" filterUnits="userSpaceOnUse"><feOffset dy="10" input="SourceAlpha"/><feGaussianBlur stdDeviation="10" result="ad"/><feFlood flood-color="#5169fb" flood-opacity="0.4"/><feComposite operator="in" in2="ad"/><feComposite in="SourceGraphic"/></filter><filter id="af" x="59.124" y="53.791" width="69.642" height="69.642" filterUnits="userSpaceOnUse"><feOffset dy="10" input="SourceAlpha"/><feGaussianBlur stdDeviation="10" result="ag"/><feFlood flood-color="#5169fb" flood-opacity="0.4"/><feComposite operator="in" in2="ag"/><feComposite in="SourceGraphic"/></filter><filter id="ai" x="57.946" y="58.675" width="66.399" height="65.937" filterUnits="userSpaceOnUse"><feOffset dy="10" input="SourceAlpha"/><feGaussianBlur stdDeviation="10" result="aj"/><feFlood flood-color="#5169fb" flood-opacity="0.4"/><feComposite operator="in" in2="aj"/><feComposite in="SourceGraphic"/></filter><filter id="al" x="9.642" y="59.576" width="69.642" height="69.643" filterUnits="userSpaceOnUse"><feOffset dy="10" input="SourceAlpha"/><feGaussianBlur stdDeviation="10" result="am"/><feFlood flood-color="#5169fb" flood-opacity="0.4"/><feComposite operator="in" in2="am"/><feComposite in="SourceGraphic"/></filter><filter id="ao" x="8.464" y="63.983" width="66.413" height="66.414" filterUnits="userSpaceOnUse"><feOffset dy="10" input="SourceAlpha"/><feGaussianBlur stdDeviation="10" result="ap"/><feFlood flood-color="#5169fb" flood-opacity="0.4"/><feComposite operator="in" in2="ap"/><feComposite in="SourceGraphic"/></filter><filter id="ar" x="8.464" y="62.254" width="62.356" height="76.995" filterUnits="userSpaceOnUse"><feOffset dy="10" input="SourceAlpha"/><feGaussianBlur stdDeviation="10" result="as"/><feFlood flood-color="#5169fb" flood-opacity="0.4"/><feComposite operator="in" in2="as"/><feComposite in="SourceGraphic"/></filter><filter id="au" x="0" y="53.791" width="69.642" height="69.642" filterUnits="userSpaceOnUse"><feOffset dy="10" input="SourceAlpha"/><feGaussianBlur stdDeviation="10" result="av"/><feFlood flood-color="#5169fb" flood-opacity="0.4"/><feComposite operator="in" in2="av"/><feComposite in="SourceGraphic"/></filter><filter id="ax" x="4.42" y="58.675" width="66.399" height="65.937" filterUnits="userSpaceOnUse"><feOffset dy="10" input="SourceAlpha"/><feGaussianBlur stdDeviation="10" result="ay"/><feFlood flood-color="#5169fb" flood-opacity="0.4"/><feComposite operator="in" in2="ay"/><feComposite in="SourceGraphic"/></filter><linearGradient id="az" x1="0.819" y1="-0.322" x2="0" y2="0.901" gradientUnits="objectBoundingBox"><stop offset="0" stop-color="#b26706"/><stop offset="1" stop-color="#ff8f00"/></linearGradient><filter id="ba" x="28.885" y="35.098" width="70.996" height="67.069" filterUnits="userSpaceOnUse"><feOffset dy="10" input="SourceAlpha"/><feGaussianBlur stdDeviation="10" result="bb"/><feFlood flood-color="#5169fb" flood-opacity="0.4"/><feComposite operator="in" in2="bb"/><feComposite in="SourceGraphic"/></filter><filter id="bd" x="32.027" y="35.098" width="67.854" height="67.069" filterUnits="userSpaceOnUse"><feOffset dy="10" input="SourceAlpha"/><feGaussianBlur stdDeviation="10" result="be"/><feFlood flood-color="#5169fb" flood-opacity="0.4"/><feComposite operator="in" in2="be"/><feComposite in="SourceGraphic"/></filter><linearGradient id="bf" x1="0.5" x2="0.523" y2="1.549" gradientUnits="objectBoundingBox"><stop offset="0" stop-color="#ffbd00"/><stop offset="1" stop-color="#ff8f00"/></linearGradient><filter id="bg" x="19.833" y="0" width="89.101" height="93.91" filterUnits="userSpaceOnUse"><feOffset dy="10" input="SourceAlpha"/><feGaussianBlur stdDeviation="10" result="bh"/><feFlood flood-color="#5169fb" flood-opacity="0.4"/><feComposite operator="in" in2="bh"/><feComposite in="SourceGraphic"/></filter><filter id="bi" x="29.174" y="3.152" width="79.76" height="90.757" filterUnits="userSpaceOnUse"><feOffset dy="10" input="SourceAlpha"/><feGaussianBlur stdDeviation="10" result="bj"/><feFlood flood-color="#5169fb" flood-opacity="0.4"/><feComposite operator="in" in2="bj"/><feComposite in="SourceGraphic"/></filter><filter id="bk" x="23.837" y="9.348" width="81.093" height="84.572" filterUnits="userSpaceOnUse"><feOffset dy="10" input="SourceAlpha"/><feGaussianBlur stdDeviation="10" result="bl"/><feFlood flood-color="#5169fb" flood-opacity="0.4"/><feComposite operator="in" in2="bl"/><feComposite in="SourceGraphic"/></filter><filter id="bm" x="3.022" y="76.893" width="122.722" height="62.356" filterUnits="userSpaceOnUse"><feOffset dy="10" input="SourceAlpha"/><feGaussianBlur stdDeviation="10" result="bn"/><feFlood flood-color="#5169fb" flood-opacity="0.4"/><feComposite operator="in" in2="bn"/><feComposite in="SourceGraphic"/></filter><linearGradient id="bo" x1="0.202" y1="0.5" x2="0.943" y2="0.5" gradientUnits="objectBoundingBox"><stop offset="0" stop-color="#ff8f00"/><stop offset="1" stop-color="#cc7402"/></linearGradient><filter id="bp" x="26.529" y="32.742" width="75.708" height="64.712" filterUnits="userSpaceOnUse"><feOffset dy="10" input="SourceAlpha"/><feGaussianBlur stdDeviation="10" result="bq"/><feFlood flood-color="#5169fb" flood-opacity="0.4"/><feComposite operator="in" in2="bq"/><feComposite in="SourceGraphic"/></filter><filter id="bs" x="35.169" y="32.742" width="67.069" height="64.712" filterUnits="userSpaceOnUse"><feOffset dy="10" input="SourceAlpha"/><feGaussianBlur stdDeviation="10" result="bt"/><feFlood flood-color="#5169fb" flood-opacity="0.4"/><feComposite operator="in" in2="bt"/><feComposite in="SourceGraphic"/></filter></defs><g transform="translate(-1065.665 -1697.729)"><g transform="matrix(1, 0, 0, 1, 1065.66, 1697.73)" filter="url(#b)"><path d="M200.513,302.744h2.834v-2.834a6.809,6.809,0,0,0-6.809-6.809h-2.215a.619.619,0,0,0-.619.619v2.215A6.809,6.809,0,0,0,200.513,302.744Z" transform="translate(-138.96 -227.73)" fill="url(#a)"/></g><g transform="matrix(1, 0, 0, 1, 1065.66, 1697.73)" filter="url(#e)"><path d="M226.708,330.3l-4.043-3.58a1.178,1.178,0,0,1,1.562-1.764l4.043,3.58a1.178,1.178,0,0,1-1.562,1.764Z" transform="translate(-163.11 -254.41)" fill="url(#d)"/></g><g transform="matrix(1, 0, 0, 1, 1065.66, 1697.73)" filter="url(#h)"><path d="M258.834,348.413H256V345.58a6.809,6.809,0,0,1,6.809-6.809h2.215a.619.619,0,0,1,.619.619V341.6A6.809,6.809,0,0,1,258.834,348.413Z" transform="translate(-191.62 -266.33)" fill="url(#a)"/></g><g transform="matrix(1, 0, 0, 1, 1065.66, 1697.73)" filter="url(#k)"><path d="M248.684,375.867a1.178,1.178,0,0,1,.1-1.663l4.043-3.58a1.178,1.178,0,1,1,1.562,1.764l-4.043,3.58A1.178,1.178,0,0,1,248.684,375.867Z" transform="translate(-185.18 -293.01)" fill="url(#d)"/></g><g transform="matrix(1, 0, 0, 1, 1065.66, 1697.73)" filter="url(#n)"><path d="M200.513,409.3h2.834v-2.834a6.809,6.809,0,0,0-6.809-6.809h-2.215a.619.619,0,0,0-.619.619V402.5A6.809,6.809,0,0,0,200.513,409.3Z" transform="translate(-138.96 -317.8)" fill="url(#a)"/></g><g transform="matrix(1, 0, 0, 1, 1065.66, 1697.73)" filter="url(#q)"><path d="M226.708,436.86l-4.043-3.58a1.178,1.178,0,0,1,1.562-1.764l4.043,3.58a1.178,1.178,0,0,1-1.562,1.764Z" transform="translate(-163.11 -344.47)" fill="url(#d)"/></g><g transform="matrix(1, 0, 0, 1, 1065.66, 1697.73)" filter="url(#t)"><path d="M249.567,303.075a1.178,1.178,0,0,1-1.178-1.178v-35.9a1.178,1.178,0,0,1,2.356,0v35.9A1.178,1.178,0,0,1,249.567,303.075Z" transform="translate(-185.18 -203.83)" fill="url(#d)"/></g><g transform="matrix(1, 0, 0, 1, 1065.66, 1697.73)" filter="url(#w)"><path d="M360.354,394.537h2.834V391.7a6.809,6.809,0,0,0-6.809-6.809h-2.215a.619.619,0,0,0-.619.619v2.215A6.809,6.809,0,0,0,360.354,394.537Z" transform="translate(-274.06 -305.32)" fill="url(#a)"/></g><g transform="matrix(1, 0, 0, 1, 1065.66, 1697.73)" filter="url(#z)"><path d="M386.42,419.437l-4.057-4.057a1.178,1.178,0,1,1,1.666-1.666l4.057,4.057a1.178,1.178,0,0,1-1.666,1.666Z" transform="translate(-298.13 -329.39)" fill="url(#d)"/></g><g transform="matrix(1, 0, 0, 1, 1065.66, 1697.73)" filter="url(#ac)"><path d="M409.407,419.2a1.178,1.178,0,0,1-1.178-1.178V403.381a1.178,1.178,0,0,1,2.356,0V418.02a1.178,1.178,0,0,1-1.178,1.178Z" transform="translate(-320.28 -319.95)" fill="url(#d)"/></g><g transform="matrix(1, 0, 0, 1, 1065.66, 1697.73)" filter="url(#af)"><path d="M418.676,357.16h-2.834v-2.834a6.809,6.809,0,0,1,6.809-6.809h2.215a.619.619,0,0,1,.619.619v2.215A6.809,6.809,0,0,1,418.676,357.16Z" transform="translate(-326.72 -273.73)" fill="url(#a)"/></g><g transform="matrix(1, 0, 0, 1, 1065.66, 1697.73)" filter="url(#ai)"><path d="M408.526,384.613a1.178,1.178,0,0,1,.1-1.663l4.043-3.58a1.178,1.178,0,1,1,1.562,1.764l-4.043,3.58A1.178,1.178,0,0,1,408.526,384.613Z" transform="translate(-320.28 -300.4)" fill="url(#d)"/></g><g transform="matrix(1, 0, 0, 1, 1065.66, 1697.73)" filter="url(#al)"><path d="M98.993,394.537H96.159V391.7a6.809,6.809,0,0,1,6.809-6.809h2.215a.619.619,0,0,1,.619.619v2.215A6.809,6.809,0,0,1,98.993,394.537Z" transform="translate(-56.52 -305.32)" fill="url(#a)"/></g><g transform="matrix(1, 0, 0, 1, 1065.66, 1697.73)" filter="url(#ao)"><path d="M89.725,419.782a1.175,1.175,0,0,0,.833-.345l4.057-4.057a1.178,1.178,0,0,0-1.666-1.666l-4.057,4.057a1.178,1.178,0,0,0,.833,2.011Z" transform="translate(-50.08 -329.39)" fill="url(#d)"/></g><g transform="matrix(1, 0, 0, 1, 1065.66, 1697.73)" filter="url(#ar)"><path d="M89.726,419.2A1.178,1.178,0,0,0,90.9,418.02V403.381a1.178,1.178,0,0,0-2.356,0V418.02a1.178,1.178,0,0,0,1.178,1.178Z" transform="translate(-50.08 -319.95)" fill="url(#d)"/></g><g transform="matrix(1, 0, 0, 1, 1065.66, 1697.73)" filter="url(#au)"><path d="M40.671,357.16H43.5v-2.834a6.809,6.809,0,0,0-6.809-6.809H34.481a.619.619,0,0,0-.619.619v2.215A6.809,6.809,0,0,0,40.671,357.16Z" transform="translate(-3.86 -273.73)" fill="url(#a)"/></g><g transform="matrix(1, 0, 0, 1, 1065.66, 1697.73)" filter="url(#ax)"><path d="M67.648,385.01a1.178,1.178,0,0,0,.782-2.06l-4.043-3.58a1.178,1.178,0,1,0-1.562,1.764l4.043,3.58A1.173,1.173,0,0,0,67.648,385.01Z" transform="translate(-28.01 -300.4)" fill="url(#d)"/></g><g transform="matrix(1, 0, 0, 1, 1065.66, 1697.73)" filter="url(#ba)"><path d="M225.978,233.826a5.5,5.5,0,0,1-5.5-5.5v-1.571h11v1.571A5.5,5.5,0,0,1,225.978,233.826Z" transform="translate(-161.59 -171.66)" fill="url(#az)"/></g><g transform="matrix(1, 0, 0, 1, 1065.66, 1697.73)" filter="url(#bd)"><path d="M243.919,226.757v1.571a5.5,5.5,0,0,1-3.142,4.968,5.5,5.5,0,0,0,7.854-4.968v-1.571Z" transform="translate(-178.75 -171.66)" fill="url(#az)"/></g><g transform="matrix(1, 0, 0, 1, 1065.66, 1697.73)" filter="url(#bg)"><path d="M191.1,14.551a14.55,14.55,0,1,0-23.342,11.595,9.651,9.651,0,0,1,3.859,7.675v.09h9.865v-.09a9.67,9.67,0,0,1,3.869-7.682A14.526,14.526,0,0,0,191.1,14.551Z" transform="translate(-112.16 20)" fill="url(#bf)"/></g><g transform="matrix(1, 0, 0, 1, 1065.66, 1697.73)" filter="url(#bi)"><path d="M236.6,20.366a14.575,14.575,0,0,1,2.5,13.369c-1.03,3.312-2.963,4.447-5.1,7.26a22.327,22.327,0,0,0-1.319,1.946,11.978,11.978,0,0,1-10.24,5.827h-.1a9.439,9.439,0,0,1,.277,2.266v.09h9.865v-.09a9.67,9.67,0,0,1,3.869-7.682,14.55,14.55,0,0,0,.242-22.985Z" transform="translate(-163.17 2.79)" fill="#ff8f00"/></g><g transform="matrix(1, 0, 0, 1, 1065.66, 1697.73)" filter="url(#bk)"><path d="M205,60.4a5.424,5.424,0,0,0-5.417,5.417v.129H197.23a5.427,5.427,0,0,0-5.417-5.546,3.951,3.951,0,0,0,0,7.9h3.061V83.789a1.178,1.178,0,0,0,2.356,0V68.3h2.356V83.79a1.178,1.178,0,0,0,2.356,0V68.3H205a3.951,3.951,0,0,0,0-7.9Zm-13.191,5.546a1.595,1.595,0,0,1,0-3.19,3.074,3.074,0,0,1,3.061,3.19Zm13.191,0h-3.061A3.078,3.078,0,0,1,205,62.753a1.595,1.595,0,0,1,0,3.19Z" transform="translate(-134.02 -31.05)" fill="#f9efaf"/></g><g transform="matrix(1, 0, 0, 1, 1065.66, 1697.73)" filter="url(#bm)"><path d="M114.933,499.133H54.567a1.178,1.178,0,0,1,0-2.356h60.366a1.178,1.178,0,1,1,0,2.356Z" transform="translate(-20.37 -399.88)" fill="#051378"/></g><g transform="matrix(1, 0, 0, 1, 1065.66, 1697.73)" filter="url(#bp)"><path d="M218.609,216.247h-11a2.356,2.356,0,0,1,0-4.713h11a2.356,2.356,0,1,1,0,4.713Z" transform="translate(-148.73 -158.79)" fill="url(#bo)"/></g><g transform="matrix(1, 0, 0, 1, 1065.66, 1697.73)" filter="url(#bs)"><path d="M265.787,211.534h-4.713a2.356,2.356,0,1,1,0,4.713h4.713a2.356,2.356,0,0,0,0-4.713Z" transform="translate(-195.91 -158.79)" fill="url(#bo)"/></g></g></svg>