<svg xmlns="http://www.w3.org/2000/svg" xmlns:xlink="http://www.w3.org/1999/xlink" width="139.335" height="137.399" viewBox="0 0 139.335 137.399"><defs><filter id="a" x="5.482" y="37.732" width="76.125" height="76.125" filterUnits="userSpaceOnUse"><feOffset dy="10" input="SourceAlpha"/><feGaussianBlur stdDeviation="10" result="b"/><feFlood flood-color="#5169fb" flood-opacity="0.302"/><feComposite operator="in" in2="b"/><feComposite in="SourceGraphic"/></filter><filter id="c" x="6.551" y="38.801" width="75.056" height="75.056" filterUnits="userSpaceOnUse"><feOffset dy="10" input="SourceAlpha"/><feGaussianBlur stdDeviation="10" result="d"/><feFlood flood-color="#5169fb" flood-opacity="0.302"/><feComposite operator="in" in2="d"/><feComposite in="SourceGraphic"/></filter><linearGradient id="e" x1="0.5" x2="0.5" y2="1" gradientUnits="objectBoundingBox"><stop offset="0" stop-color="#5169fb"/><stop offset="1" stop-color="#1224a6"/></linearGradient><filter id="f" x="0" y="53.857" width="87.09" height="73.545" filterUnits="userSpaceOnUse"><feOffset dy="10" input="SourceAlpha"/><feGaussianBlur stdDeviation="10" result="g"/><feFlood flood-color="#5169fb" flood-opacity="0.302"/><feComposite operator="in" in2="g"/><feComposite in="SourceGraphic"/></filter><filter id="h" x="16.77" y="53.857" width="70.32" height="73.545" filterUnits="userSpaceOnUse"><feOffset dy="10" input="SourceAlpha"/><feGaussianBlur stdDeviation="10" result="i"/><feFlood flood-color="#5169fb" flood-opacity="0.302"/><feComposite operator="in" in2="i"/><feComposite in="SourceGraphic"/></filter><linearGradient id="j" x1="0.5" x2="0.5" y2="1" gradientUnits="objectBoundingBox"><stop offset="0" stop-color="#ffbd00"/><stop offset="1" stop-color="#ff8f00"/></linearGradient><filter id="k" x="0" y="0" width="105.15" height="97.347" filterUnits="userSpaceOnUse"><feOffset dy="10" input="SourceAlpha"/><feGaussianBlur stdDeviation="10" result="l"/><feFlood flood-color="#5169fb" flood-opacity="0.302"/><feComposite operator="in" in2="l"/><feComposite in="SourceGraphic"/></filter><filter id="m" x="30.637" y="6.449" width="74.512" height="87.735" filterUnits="userSpaceOnUse"><feOffset dy="10" input="SourceAlpha"/><feGaussianBlur stdDeviation="10" result="n"/><feFlood flood-color="#5169fb" flood-opacity="0.302"/><feComposite operator="in" in2="n"/><feComposite in="SourceGraphic"/></filter><filter id="o" x="57.727" y="47.729" width="76.125" height="76.125" filterUnits="userSpaceOnUse"><feOffset dy="10" input="SourceAlpha"/><feGaussianBlur stdDeviation="10" result="p"/><feFlood flood-color="#5169fb" flood-opacity="0.302"/><feComposite operator="in" in2="p"/><feComposite in="SourceGraphic"/></filter><filter id="q" x="58.795" y="48.799" width="75.056" height="75.056" filterUnits="userSpaceOnUse"><feOffset dy="10" input="SourceAlpha"/><feGaussianBlur stdDeviation="10" result="r"/><feFlood flood-color="#5169fb" flood-opacity="0.302"/><feComposite operator="in" in2="r"/><feComposite in="SourceGraphic"/></filter><filter id="t" x="52.244" y="63.854" width="87.09" height="73.545" filterUnits="userSpaceOnUse"><feOffset dy="10" input="SourceAlpha"/><feGaussianBlur stdDeviation="10" result="u"/><feFlood flood-color="#5169fb" flood-opacity="0.302"/><feComposite operator="in" in2="u"/><feComposite in="SourceGraphic"/></filter><filter id="v" x="69.014" y="63.854" width="70.32" height="73.545" filterUnits="userSpaceOnUse"><feOffset dy="10" input="SourceAlpha"/><feGaussianBlur stdDeviation="10" result="w"/><feFlood flood-color="#5169fb" flood-opacity="0.302"/><feComposite operator="in" in2="w"/><feComposite in="SourceGraphic"/></filter><filter id="y" x="34.185" y="9.998" width="105.15" height="97.347" filterUnits="userSpaceOnUse"><feOffset dy="10" input="SourceAlpha"/><feGaussianBlur stdDeviation="10" result="z"/><feFlood flood-color="#5169fb" flood-opacity="0.302"/><feComposite operator="in" in2="z"/><feComposite in="SourceGraphic"/></filter><filter id="aa" x="71.272" y="9.998" width="68.062" height="92.25" filterUnits="userSpaceOnUse"><feOffset dy="10" input="SourceAlpha"/><feGaussianBlur stdDeviation="10" result="ab"/><feFlood flood-color="#5169fb" flood-opacity="0.302"/><feComposite operator="in" in2="ab"/><feComposite in="SourceGraphic"/></filter><filter id="ac" x="5.575" y="62.979" width="62.394" height="64.422" filterUnits="userSpaceOnUse"><feOffset dy="10" input="SourceAlpha"/><feGaussianBlur stdDeviation="10" result="ad"/><feFlood flood-color="#5169fb" flood-opacity="0.302"/><feComposite operator="in" in2="ad"/><feComposite in="SourceGraphic"/></filter><filter id="ae" x="19.12" y="62.98" width="62.394" height="64.422" filterUnits="userSpaceOnUse"><feOffset dy="10" input="SourceAlpha"/><feGaussianBlur stdDeviation="10" result="af"/><feFlood flood-color="#5169fb" flood-opacity="0.302"/><feComposite operator="in" in2="af"/><feComposite in="SourceGraphic"/></filter><filter id="ag" x="57.82" y="72.977" width="62.394" height="64.422" filterUnits="userSpaceOnUse"><feOffset dy="10" input="SourceAlpha"/><feGaussianBlur stdDeviation="10" result="ah"/><feFlood flood-color="#5169fb" flood-opacity="0.302"/><feComposite operator="in" in2="ah"/><feComposite in="SourceGraphic"/></filter><filter id="ai" x="71.365" y="72.977" width="62.394" height="64.422" filterUnits="userSpaceOnUse"><feOffset dy="10" input="SourceAlpha"/><feGaussianBlur stdDeviation="10" result="aj"/><feFlood flood-color="#5169fb" flood-opacity="0.302"/><feComposite operator="in" in2="aj"/><feComposite in="SourceGraphic"/></filter><filter id="ak" x="41.335" y="22.625" width="67" height="67" filterUnits="userSpaceOnUse"><feOffset dy="10" input="SourceAlpha"/><feGaussianBlur stdDeviation="10" result="al"/><feFlood flood-color="#5169fb" flood-opacity="0.302"/><feComposite operator="in" in2="al"/><feComposite in="SourceGraphic"/></filter><filter id="am" x="10.335" y="12.625" width="66" height="66" filterUnits="userSpaceOnUse"><feOffset dy="10" input="SourceAlpha"/><feGaussianBlur stdDeviation="10" result="an"/><feFlood flood-color="#5169fb" flood-opacity="0.302"/><feComposite operator="in" in2="an"/><feComposite in="SourceGraphic"/></filter><filter id="ao" x="51.671" y="22.625" width="66.664" height="67" filterUnits="userSpaceOnUse"><feOffset dy="10" input="SourceAlpha"/><feGaussianBlur stdDeviation="10" result="ap"/><feFlood flood-color="#5169fb" flood-opacity="0.302"/><feComposite operator="in" in2="ap"/><feComposite in="SourceGraphic"/></filter><filter id="aq" x="19.335" y="12.625" width="66" height="66" filterUnits="userSpaceOnUse"><feOffset dy="10" input="SourceAlpha"/><feGaussianBlur stdDeviation="10" result="ar"/><feFlood flood-color="#5169fb" flood-opacity="0.302"/><feComposite operator="in" in2="ar"/><feComposite in="SourceGraphic"/></filter><filter id="as" x="61.335" y="22.625" width="67" height="67" filterUnits="userSpaceOnUse"><feOffset dy="10" input="SourceAlpha"/><feGaussianBlur stdDeviation="10" result="at"/><feFlood flood-color="#5169fb" flood-opacity="0.302"/><feComposite operator="in" in2="at"/><feComposite in="SourceGraphic"/></filter></defs><g transform="translate(-1060.665 -1349.375)"><g transform="matrix(1, 0, 0, 1, 1060.67, 1349.38)" filter="url(#a)"><circle cx="8.063" cy="8.063" r="8.063" transform="translate(35.48 57.73)" fill="#ffbd00"/></g><g transform="matrix(1, 0, 0, 1, 1060.67, 1349.38)" filter="url(#c)"><path d="M53.286,256.656a8.061,8.061,0,0,1-11,11,8.062,8.062,0,1,0,11-11Z" transform="translate(-5.73 -197.85)" fill="#ff8f00"/></g><g transform="matrix(1, 0, 0, 1, 1060.67, 1349.38)" filter="url(#f)"><path d="M0,360.271v5.5a1.6,1.6,0,0,0,1.6,1.6h23.9a1.6,1.6,0,0,0,1.6-1.6v-5.5a6.45,6.45,0,0,0-6.45-6.45H6.45A6.45,6.45,0,0,0,0,360.271Z" transform="translate(30 -279.96)" fill="url(#e)"/></g><g transform="matrix(1, 0, 0, 1, 1060.67, 1349.38)" filter="url(#h)"><path d="M112.1,353.821h-3.87a6.45,6.45,0,0,1,6.45,6.45v7.1h2.274a1.6,1.6,0,0,0,1.6-1.6v-5.5A6.45,6.45,0,0,0,112.1,353.821Z" transform="translate(-61.46 -279.96)" fill="#1224a6"/></g><g transform="matrix(1, 0, 0, 1, 1060.67, 1349.38)" filter="url(#k)"><path d="M3.225,6.244h38.7A3.225,3.225,0,0,1,45.15,9.469v25.8a3.225,3.225,0,0,1-3.225,3.225H32.837a.638.638,0,0,0-.452.187l-4.628,4.628a.958.958,0,0,1-1.635-.677v-3.5a.639.639,0,0,0-.639-.639H3.225A3.225,3.225,0,0,1,0,35.269V9.469A3.225,3.225,0,0,1,3.225,6.244Z" transform="translate(30 13.76)" fill="url(#j)"/></g><g transform="matrix(1, 0, 0, 1, 1060.67, 1349.38)" filter="url(#m)"><path d="M204.5,47.87a6.772,6.772,0,0,0-6.772,6.772V75.6l1.748-1.748a.638.638,0,0,1,.452-.187h9.088a3.225,3.225,0,0,0,3.225-3.225V47.87Z" transform="translate(-137.09 -21.42)" fill="#ff8f00"/></g><g transform="matrix(1, 0, 0, 1, 1060.67, 1349.38)" filter="url(#o)"><circle cx="8.063" cy="8.063" r="8.063" transform="translate(87.73 67.73)" fill="#ffbd00"/></g><g transform="matrix(1, 0, 0, 1, 1060.67, 1349.38)" filter="url(#q)"><path d="M390.455,321.176a8.061,8.061,0,0,1-11,11,8.062,8.062,0,1,0,11-11Z" transform="translate(-290.66 -252.38)" fill="#ff8f00"/></g><g transform="matrix(1, 0, 0, 1, 1060.67, 1349.38)" filter="url(#t)"><path d="M337.171,424.791v5.5a1.6,1.6,0,0,0,1.6,1.6h23.9a1.6,1.6,0,0,0,1.6-1.6v-5.5a6.45,6.45,0,0,0-6.45-6.45h-14.19A6.45,6.45,0,0,0,337.171,424.791Z" transform="translate(-254.93 -334.49)" fill="url(#e)"/></g><g transform="matrix(1, 0, 0, 1, 1060.67, 1349.38)" filter="url(#v)"><path d="M449.268,418.341H445.4a6.45,6.45,0,0,1,6.45,6.45v7.095h2.274a1.6,1.6,0,0,0,1.6-1.6v-5.5A6.45,6.45,0,0,0,449.268,418.341Z" transform="translate(-346.38 -334.49)" fill="#1224a6"/></g><g transform="matrix(1, 0, 0, 1, 1060.67, 1349.38)" filter="url(#y)"><path d="M262.543,70.764h-38.7a3.225,3.225,0,0,0-3.225,3.225v25.8a3.225,3.225,0,0,0,3.225,3.225h9.088a.638.638,0,0,1,.452.187l4.628,4.628a.958.958,0,0,0,1.635-.677v-3.5a.639.639,0,0,1,.639-.639h22.259a3.225,3.225,0,0,0,3.225-3.225v-25.8A3.225,3.225,0,0,0,262.543,70.764Z" transform="translate(-156.43 -40.77)" fill="url(#j)"/></g><g transform="matrix(1, 0, 0, 1, 1060.67, 1349.38)" filter="url(#aa)"><path d="M464.805,70.764h-4.837a3.225,3.225,0,0,1,3.225,3.225v25.8a3.225,3.225,0,0,1-3.225,3.225h4.837a3.225,3.225,0,0,0,3.225-3.225v-25.8A3.225,3.225,0,0,0,464.805,70.764Z" transform="translate(-358.7 -40.77)" fill="#ff8f00"/></g><g transform="matrix(1, 0, 0, 1, 1060.67, 1349.38)" filter="url(#ac)"><path d="M38.376,417.119v-3.225a1.2,1.2,0,1,0-2.394,0v3.225Z" transform="translate(-0.41 -329.72)" fill="#fff"/></g><g transform="matrix(1, 0, 0, 1, 1060.67, 1349.38)" filter="url(#ae)"><path d="M125.79,413.893a1.2,1.2,0,1,0-2.394,0v3.225h2.394v-3.225Z" transform="translate(-74.28 -329.72)" fill="#fff"/></g><g transform="matrix(1, 0, 0, 1, 1060.67, 1349.38)" filter="url(#ag)"><path d="M375.546,481.639v-3.225a1.2,1.2,0,1,0-2.394,0v3.225Z" transform="translate(-285.33 -384.24)" fill="#fff"/></g><g transform="matrix(1, 0, 0, 1, 1060.67, 1349.38)" filter="url(#ai)"><path d="M462.961,481.639v-3.225a1.2,1.2,0,1,0-2.394,0v3.225Z" transform="translate(-359.2 -384.24)" fill="#fff"/></g><g transform="matrix(1, 0, 0, 1, 1060.67, 1349.38)" filter="url(#ak)"><circle cx="3.5" cy="3.5" r="3.5" transform="translate(71.33 42.63)" fill="#fff"/></g><g transform="matrix(1, 0, 0, 1, 1060.67, 1349.38)" filter="url(#am)"><circle cx="3" cy="3" r="3" transform="translate(40.33 32.63)" fill="#fff"/></g><g transform="matrix(1, 0, 0, 1, 1060.67, 1349.38)" filter="url(#ao)"><path d="M3.332,0A3.419,3.419,0,0,1,6.664,3.5,3.419,3.419,0,0,1,3.332,7,3.419,3.419,0,0,1,0,3.5,3.419,3.419,0,0,1,3.332,0Z" transform="translate(81.67 42.63)" fill="#fff"/></g><g transform="matrix(1, 0, 0, 1, 1060.67, 1349.38)" filter="url(#aq)"><circle cx="3" cy="3" r="3" transform="translate(49.33 32.63)" fill="#fff"/></g><g transform="matrix(1, 0, 0, 1, 1060.67, 1349.38)" filter="url(#as)"><circle cx="3.5" cy="3.5" r="3.5" transform="translate(91.33 42.63)" fill="#fff"/></g></g></svg>