<svg xmlns="http://www.w3.org/2000/svg" xmlns:xlink="http://www.w3.org/1999/xlink" width="125.533" height="139.392" viewBox="0 0 125.533 139.392"><defs><linearGradient id="a" x1="0.5" x2="0.5" y2="1" gradientUnits="objectBoundingBox"><stop offset="0" stop-color="#5169fb"/><stop offset="1" stop-color="#1224a6"/></linearGradient><filter id="b" x="0" y="0.181" width="118.602" height="139.211" filterUnits="userSpaceOnUse"><feOffset dy="10" input="SourceAlpha"/><feGaussianBlur stdDeviation="10" result="c"/><feFlood flood-color="#5169fb" flood-opacity="0.4"/><feComposite operator="in" in2="c"/><feComposite in="SourceGraphic"/></filter><linearGradient id="d" x1="0.5" x2="0.5" y2="1" gradientUnits="objectBoundingBox"><stop offset="0" stop-color="#ffbd00"/><stop offset="1" stop-color="#ff8f00"/></linearGradient><filter id="e" x="41.228" y="36.558" width="65.855" height="65.527" filterUnits="userSpaceOnUse"><feOffset dy="10" input="SourceAlpha"/><feGaussianBlur stdDeviation="10" result="f"/><feFlood flood-color="#5169fb" flood-opacity="0.4"/><feComposite operator="in" in2="f"/><feComposite in="SourceGraphic"/></filter><filter id="h" x="32.571" y="0" width="83.17" height="90.097" filterUnits="userSpaceOnUse"><feOffset dy="10" input="SourceAlpha"/><feGaussianBlur stdDeviation="10" result="i"/><feFlood flood-color="#5169fb" flood-opacity="0.4"/><feComposite operator="in" in2="i"/><feComposite in="SourceGraphic"/></filter><filter id="j" x="36.425" y="27.862" width="75.461" height="69.654" filterUnits="userSpaceOnUse"><feOffset dy="10" input="SourceAlpha"/><feGaussianBlur stdDeviation="10" result="k"/><feFlood flood-color="#5169fb" flood-opacity="0.4"/><feComposite operator="in" in2="k"/><feComposite in="SourceGraphic"/></filter><filter id="m" x="36.425" y="31.472" width="75.461" height="62.395" filterUnits="userSpaceOnUse"><feOffset dy="10" input="SourceAlpha"/><feGaussianBlur stdDeviation="10" result="n"/><feFlood flood-color="#5169fb" flood-opacity="0.4"/><feComposite operator="in" in2="n"/><feComposite in="SourceGraphic"/></filter><filter id="p" x="61.354" y="7.285" width="64.179" height="63.195" filterUnits="userSpaceOnUse"><feOffset dy="10" input="SourceAlpha"/><feGaussianBlur stdDeviation="10" result="q"/><feFlood flood-color="#5169fb" flood-opacity="0.4"/><feComposite operator="in" in2="q"/><feComposite in="SourceGraphic"/></filter><filter id="s" x="61.354" y="16.572" width="64.179" height="63.195" filterUnits="userSpaceOnUse"><feOffset dy="10" input="SourceAlpha"/><feGaussianBlur stdDeviation="10" result="t"/><feFlood flood-color="#5169fb" flood-opacity="0.4"/><feComposite operator="in" in2="t"/><feComposite in="SourceGraphic"/></filter><filter id="v" x="22.219" y="7.285" width="64.179" height="63.195" filterUnits="userSpaceOnUse"><feOffset dy="10" input="SourceAlpha"/><feGaussianBlur stdDeviation="10" result="w"/><feFlood flood-color="#5169fb" flood-opacity="0.4"/><feComposite operator="in" in2="w"/><feComposite in="SourceGraphic"/></filter><filter id="y" x="22.219" y="16.572" width="64.179" height="63.195" filterUnits="userSpaceOnUse"><feOffset dy="10" input="SourceAlpha"/><feGaussianBlur stdDeviation="10" result="z"/><feFlood flood-color="#5169fb" flood-opacity="0.4"/><feComposite operator="in" in2="z"/><feComposite in="SourceGraphic"/></filter></defs><g transform="translate(-1428 -1310.382)"><g transform="matrix(1, 0, 0, 1, 1428, 1310.38)" filter="url(#b)"><path d="M70.344,78.7V70.4a3.441,3.441,0,0,0-3.427-3.441l-11.906-.047a4.2,4.2,0,0,1-4.126-3.491L48.858,51.65H44.393a.982.982,0,0,1-.982-.982,20.118,20.118,0,0,1,3.031-10.62L47.9,37.711a1.774,1.774,0,0,0,.262-1.073l-.545-7.057A26.411,26.411,0,0,1,73.945,1.135a28.05,28.05,0,0,1,26.861,36.13L95.3,55.555V78.573a1.643,1.643,0,0,1-1.633,1.643L72,80.346A1.643,1.643,0,0,1,70.344,78.7Z" transform="translate(-13.41 19.05)" fill="url(#a)"/></g><g transform="matrix(1, 0, 0, 1, 1428, 1310.38)" filter="url(#e)"><path d="M307.528,229.009h-5.855v2.6a2.928,2.928,0,1,0,5.855,0Z" transform="translate(-230.44 -172.45)" fill="url(#d)"/></g><g transform="matrix(1, 0, 0, 1, 1428, 1310.38)" filter="url(#h)"><path d="M270.613,11.585a11.585,11.585,0,1,0-19.225,8.705,3.874,3.874,0,0,1,1.341,2.906v6.9h12.6V23.2a3.84,3.84,0,0,1,1.322-2.889,11.553,11.553,0,0,0,3.963-8.721Z" transform="translate(-184.87 20)" fill="url(#d)"/></g><g transform="matrix(1, 0, 0, 1, 1428, 1310.38)" filter="url(#j)"><path d="M285.874,174.533H272.761a1.174,1.174,0,0,0-1.174,1.174v4.209a4.272,4.272,0,0,0,4.272,4.272h6.917a4.272,4.272,0,0,0,4.272-4.272v-4.209A1.174,1.174,0,0,0,285.874,174.533Z" transform="translate(-205.16 -126.67)" fill="#fff"/></g><g transform="matrix(1, 0, 0, 1, 1428, 1310.38)" filter="url(#m)"><path d="M271.587,197.151v1.771a4.306,4.306,0,0,0,.046.623H287a4.312,4.312,0,0,0,.046-.623v-1.771Z" transform="translate(-205.16 -145.68)" fill="url(#d)"/></g><g transform="matrix(1, 0, 0, 1, 1428, 1310.38)" filter="url(#p)"><path d="M428.945,48.832a1.2,1.2,0,0,1-.49-2.29l1.784-.8a1.2,1.2,0,1,1,.98,2.185l-1.784.8A1.192,1.192,0,0,1,428.945,48.832Z" transform="translate(-336.39 -18.35)" fill="url(#d)"/></g><g transform="matrix(1, 0, 0, 1, 1428, 1310.38)" filter="url(#s)"><path d="M430.727,107.009a1.192,1.192,0,0,1-.489-.105l-1.784-.8a1.2,1.2,0,1,1,.98-2.185l1.784.8a1.2,1.2,0,0,1-.491,2.29Z" transform="translate(-336.39 -67.24)" fill="url(#d)"/></g><g transform="matrix(1, 0, 0, 1, 1428, 1310.38)" filter="url(#v)"><path d="M185.577,48.832a1.192,1.192,0,0,1-.489-.105l-1.784-.8a1.2,1.2,0,0,1,.98-2.185l1.784.8a1.2,1.2,0,0,1-.491,2.29Z" transform="translate(-130.38 -18.35)" fill="url(#d)"/></g><g transform="matrix(1, 0, 0, 1, 1428, 1310.38)" filter="url(#y)"><path d="M183.8,107.009a1.2,1.2,0,0,1-.49-2.29l1.784-.8a1.2,1.2,0,0,1,.98,2.185l-1.784.8A1.2,1.2,0,0,1,183.8,107.009Z" transform="translate(-130.38 -67.24)" fill="url(#d)"/></g></g></svg>