<svg xmlns="http://www.w3.org/2000/svg" xmlns:xlink="http://www.w3.org/1999/xlink" width="319.064" height="202.988" viewBox="0 0 319.064 202.988"><defs><linearGradient id="a" x1="0.737" y1="0.029" x2="0.133" y2="0.837" gradientUnits="objectBoundingBox"><stop offset="0" stop-color="#5169fb"/><stop offset="1" stop-color="#1224a6"/></linearGradient><filter id="b" x="220.618" y="4.749" width="94.431" height="94.587" filterUnits="userSpaceOnUse"><feOffset dy="10" input="SourceAlpha"/><feGaussianBlur stdDeviation="10" result="c"/><feFlood flood-color="#5169fb" flood-opacity="0.4"/><feComposite operator="in" in2="c"/><feComposite in="SourceGraphic"/></filter><filter id="d" x="221.469" y="21.921" width="60.001" height="60.001" filterUnits="userSpaceOnUse"><feOffset dy="10" input="SourceAlpha"/><feGaussianBlur stdDeviation="10" result="e"/><feFlood flood-color="#5169fb" flood-opacity="0.4"/><feComposite operator="in" in2="e"/><feComposite in="SourceGraphic"/></filter><filter id="f" x="222.918" y="25.855" width="60" height="60" filterUnits="userSpaceOnUse"><feOffset dy="10" input="SourceAlpha"/><feGaussianBlur stdDeviation="10" result="g"/><feFlood flood-color="#5169fb" flood-opacity="0.4"/><feComposite operator="in" in2="g"/><feComposite in="SourceGraphic"/></filter><linearGradient id="h" x1="0.781" y1="0.14" x2="0.128" y2="0.802" xlink:href="#a"/><filter id="i" x="215.993" y="0" width="103.071" height="103.071" filterUnits="userSpaceOnUse"><feOffset dy="10" input="SourceAlpha"/><feGaussianBlur stdDeviation="10" result="j"/><feFlood flood-color="#5169fb" flood-opacity="0.4"/><feComposite operator="in" in2="j"/><feComposite in="SourceGraphic"/></filter><filter id="k" x="53.958" y="95.5" width="86.888" height="104.223" filterUnits="userSpaceOnUse"><feOffset dy="10" input="SourceAlpha"/><feGaussianBlur stdDeviation="10" result="l"/><feFlood flood-color="#5169fb" flood-opacity="0.302"/><feComposite operator="in" in2="l"/><feComposite in="SourceGraphic"/></filter><filter id="m" x="22.219" y="37.776" width="147.754" height="147.75" filterUnits="userSpaceOnUse"><feOffset dy="10" input="SourceAlpha"/><feGaussianBlur stdDeviation="10" result="n"/><feFlood flood-color="#5169fb" flood-opacity="0.302"/><feComposite operator="in" in2="n"/><feComposite in="SourceGraphic"/></filter><linearGradient id="o" x1="0.877" y1="0.138" x2="0.213" y2="0.855" xlink:href="#a"/><filter id="p" x="67.057" y="59.021" width="82.898" height="82.903" filterUnits="userSpaceOnUse"><feOffset dy="10" input="SourceAlpha"/><feGaussianBlur stdDeviation="10" result="q"/><feFlood flood-color="#5169fb" flood-opacity="0.302"/><feComposite operator="in" in2="q"/><feComposite in="SourceGraphic"/></filter><filter id="s" x="0" y="106.46" width="96.649" height="96.527" filterUnits="userSpaceOnUse"><feOffset dy="10" input="SourceAlpha"/><feGaussianBlur stdDeviation="10" result="t"/><feFlood flood-color="#5169fb" flood-opacity="0.302"/><feComposite operator="in" in2="t"/><feComposite in="SourceGraphic"/></filter><filter id="u" x="8.315" y="63.153" width="99.487" height="85.721" filterUnits="userSpaceOnUse"><feOffset dy="10" input="SourceAlpha"/><feGaussianBlur stdDeviation="10" result="v"/><feFlood flood-color="#5169fb" flood-opacity="0.302"/><feComposite operator="in" in2="v"/><feComposite in="SourceGraphic"/></filter></defs><g transform="translate(-1208.387 -1744.726)"><g transform="translate(1466.328 1764.726) rotate(21)"><path d="M0,21.471l2.79,3.185a15.867,15.867,0,0,1,1.06-2.283L22.342,4a14.968,14.968,0,0,1,2.115-.952L21.79,0a33.392,33.392,0,0,0-4.127,2.282L8.346,8.839,2.055,17.858A34.749,34.749,0,0,0,0,21.471Z" transform="translate(1.759 1.407)" fill="url(#a)"/><g transform="matrix(0.93, -0.36, 0.36, 0.93, -247.98, 73.77)" filter="url(#b)"><path d="M3.175,22.131A13.457,13.457,0,0,1,.932,18.369h0l0,0Q.82,18.087.722,17.8A13.517,13.517,0,0,1,0,13.513c0-.03,0-.06,0-.09A13.356,13.356,0,0,1,13.288,0a13.13,13.13,0,0,1,4.8.9h0a13.265,13.265,0,0,1,3.733,2.233h0a13.448,13.448,0,0,1,4.75,10.285c0,.261-.008.52-.023.776A13.369,13.369,0,0,1,14.026,26.825h0q-.366.021-.737.021A13.2,13.2,0,0,1,3.175,22.131Z" transform="translate(260.24 24.75) rotate(21)" fill="#fff"/></g><g transform="matrix(0.93, -0.36, 0.36, 0.93, -247.98, 73.77)" filter="url(#d)"><path d="M0,0H0Z" transform="translate(251.47 41.92) rotate(21)" fill="#fff"/></g><g transform="matrix(0.93, -0.36, 0.36, 0.93, -247.98, 73.77)" filter="url(#f)"><path d="M0,0H0Z" transform="translate(252.92 45.85) rotate(21)" fill="#fff"/></g><g transform="matrix(0.93, -0.36, 0.36, 0.93, -247.98, 73.77)" filter="url(#i)"><path d="M32.252,1.086C30.6-.563,27.33-.27,23.385,1.532l2.639,3.013h0c1.391-.483,2.443-.5,3,.058,1.771,1.771-2.259,8.672-9,15.415S6.374,30.79,4.6,29.019c-.564-.564-.539-1.648-.027-3.081L1.815,22.785C-.236,27-.646,30.52,1.086,32.251c3.262,3.262,12.883-1.071,21.489-9.677S35.514,4.347,32.252,1.086Z" transform="translate(257.94 20) rotate(21)" fill="url(#h)"/></g></g><path d="M0,53.038S24.453-1.246,112.575.022" transform="translate(1352.668 1760.789) rotate(11)" fill="none" stroke="#fff" stroke-width="2" stroke-dasharray="6 5"/><g transform="translate(1238.387 1802.502)"><g transform="matrix(1, 0, 0, 1, -30, -57.78)" filter="url(#k)"><path d="M22.745.289a3.26,3.26,0,0,0-3.514.541L1.1,16.974A3.264,3.264,0,0,0,.034,19.883L2.955,40.274a3.258,3.258,0,0,0,2.276,2.564l.968.153a3.514,3.514,0,0,0,2.455-1.02,54.37,54.37,0,0,0,16.019-38.7A3.258,3.258,0,0,0,22.745.289Z" transform="translate(86.21 115.5) rotate(3)" fill="#fff"/></g><g transform="matrix(1, 0, 0, 1, -30, -57.78)" filter="url(#m)"><path d="M30.645,83.495a3.262,3.262,0,0,1-2.311-.959L.957,55.159a3.271,3.271,0,0,1-.126-4.491L21.349,27.686C35.881,10.678,59.473-.432,80.293.013A3.269,3.269,0,0,1,83.484,3.2c.48,20.7-10.66,44.407-27.725,58.987L32.829,82.662a3.27,3.27,0,0,1-2.184.833Z" transform="translate(56.59 57.78) rotate(3)" fill="#fff"/></g><g transform="matrix(1, 0, 0, 1, -30, -57.78)" filter="url(#p)"><path d="M10.894,21.793A10.9,10.9,0,1,1,18.6,18.605,10.866,10.866,0,0,1,10.894,21.793Z" transform="translate(98.2 79.02) rotate(3)" fill="url(#o)"/></g><g transform="matrix(1, 0, 0, 1, -30, -57.78)" filter="url(#s)"><path d="M3.268,34.75A3.272,3.272,0,0,1,.137,30.538C1.232,26.871,6.939,8.349,11.4,3.9a14.086,14.086,0,0,1,19.454,0,13.763,13.763,0,0,1,0,19.459C26.4,27.808,7.872,33.516,4.21,34.614Z" transform="translate(31.82 126.46) rotate(3)" fill="url(#o)"/></g><g transform="matrix(1, 0, 0, 1, -30, -57.78)" filter="url(#u)"><path d="M38.3,0A54.361,54.361,0,0,0,1.106,16l-.148.148A3.268,3.268,0,0,0,2.806,21.7L17.12,23.749l19.908-22.3Q37.65.722,38.3,0Z" transform="translate(39.56 83.15) rotate(3)" fill="#fff"/></g></g></g></svg>